<svg xmlns="http://www.w3.org/2000/svg" xmlns:xlink="http://www.w3.org/1999/xlink" width="2000" zoomAndPan="magnify" viewBox="0 0 1500 1499.999933" height="2000" preserveAspectRatio="xMidYMid meet" version="1.0"><defs><clipPath id="a6649f48cb"><path d="M 416 390 L 1096.9375 390 L 1096.9375 1138 L 416 1138 Z M 416 390 " clip-rule="nonzero"/></clipPath><clipPath id="91c178ce57"><path d="M 680 409 L 1096.9375 409 L 1096.9375 546 L 680 546 Z M 680 409 " clip-rule="nonzero"/></clipPath></defs><rect x="-150" width="1800" fill="#ffffff" y="-149.999993" height="1799.99992" fill-opacity="1"/><rect x="-150" width="1800" fill="#007cf2" y="-149.999993" height="1799.99992" fill-opacity="1"/><g clip-path="url(#a6649f48cb)"><path fill="#ffffff" d="M 440.527344 616.941406 C 438.429688 567.886719 452.789062 527.414062 484.300781 506.632812 C 509.074219 490.304688 540.851562 488.507812 574.800781 498.796875 C 497.886719 565.554688 449.253906 664.023438 449.253906 773.859375 C 449.253906 974.941406 612.261719 1137.949219 813.34375 1137.949219 C 927.929688 1137.949219 1030.152344 1085.011719 1096.894531 1002.265625 C 1042.941406 1050.226562 971.878906 1079.359375 894.007812 1079.359375 C 725.28125 1079.359375 588.511719 942.578125 588.511719 773.859375 C 588.511719 690.882812 621.582031 615.632812 675.277344 560.578125 C 697.058594 580.949219 717.792969 605.386719 736.171875 633.257812 C 751.226562 656.082031 763.535156 679.445312 773.074219 702.550781 C 770.851562 650.730469 750.257812 589.34375 712.09375 531.460938 C 637.796875 418.789062 525.03125 362.097656 460.21875 404.832031 C 408.539062 438.917969 402.972656 525.941406 440.527344 616.941406 " fill-opacity="1" fill-rule="nonzero"/></g><g clip-path="url(#91c178ce57)"><path fill="#ffffff" d="M 743.332031 508.039062 C 787.789062 482.789062 839.214844 468.351562 894.007812 468.351562 C 971.878906 468.351562 1042.941406 497.488281 1096.894531 545.445312 C 1030.152344 462.699219 927.929688 409.757812 813.34375 409.757812 C 766.511719 409.757812 721.746094 418.609375 680.621094 434.722656 C 703.007812 455.085938 724.375 479.761719 743.332031 508.039062 " fill-opacity="1" fill-rule="nonzero"/></g></svg>